<svg xmlns="http://www.w3.org/2000/svg" viewBox="0 0 380 380" width="380" height="380" fill="#000000">
<!-- https://pay.mysbertips.ru/58491220 -->
<path d="M111.4 0 L111.4 0 Q117.9 0 117.9 6.6L117.9 19.7 Q117.9 26.2 111.4 26.2L111.4 26.2 Q104.8 26.2 104.8 19.7L104.8 13.1 L104.8 6.6 Q104.8 0 111.4 0Z"/>
<path d="M176.9 0 L203.1 0 Q209.7 0 209.7 6.6L209.7 6.6 Q209.7 13.1 203.1 13.1L183.4 13.1 L183.4 19.7 Q183.4 26.2 176.9 26.2L163.8 26.2 Q157.2 26.2 157.2 19.7L157.2 19.7 Q157.2 13.1 163.8 13.1L170.3 13.1 L170.3 6.6 Q170.3 0 176.9 0Z"/>
<path d="M229.3 0 L255.5 0 Q262.1 0 262.1 6.6L262.1 6.6 Q262.1 13.1 255.5 13.1L249 13.1 L249 19.7 Q249 26.2 242.4 26.2L242.4 26.2 Q235.9 26.2 235.9 19.7L235.9 13.1 L229.3 13.1 Q222.8 13.1 222.8 6.6L222.8 6.6 Q222.8 0 229.3 0Z"/>
<path d="M216.2 13.1 L216.2 13.1 Q222.8 13.1 222.8 19.7L222.8 32.8 Q222.8 39.3 216.2 39.3L216.2 39.3 Q209.7 39.3 209.7 32.8L209.7 26.2 L209.7 19.7 Q209.7 13.1 216.2 13.1Z"/>
<path d="M137.6 26.2 L150.7 26.2 Q157.2 26.2 157.2 32.8L157.2 72.1 Q157.2 78.6 150.7 78.6L144.1 78.6 L144.1 98.3 Q144.1 104.8 137.6 104.8L131 104.8 L131 111.4 Q131 117.9 124.5 117.9L124.5 117.9 Q117.9 117.9 117.9 111.4L117.9 104.8 L111.4 104.8 Q104.8 104.8 104.8 98.3L104.8 85.2 Q104.8 78.6 111.4 78.6L111.4 78.6 Q117.9 78.6 117.9 85.2L117.9 91.7 L131 91.7 L131 78.6 L124.5 78.6 Q117.9 78.6 117.9 72.1L117.9 59 Q117.9 52.4 124.5 52.4L124.5 52.4 Q131 52.4 131 59L131 65.5 L144.1 65.5 L144.1 39.3 L137.6 39.3 Q131 39.3 131 32.8L131 32.8 Q131 26.2 137.6 26.2Z"/>
<path d="M111.4 39.3 L111.4 39.3 Q117.9 39.3 117.9 45.9L117.9 45.9 Q117.9 52.4 111.4 52.4L111.4 52.4 Q104.8 52.4 104.8 45.9L104.8 45.9 Q104.8 39.3 111.4 39.3Z"/>
<path d="M190 39.3 L203.1 39.3 Q209.7 39.3 209.7 45.9L209.7 45.9 Q209.7 52.4 203.1 52.4L196.6 52.4 L196.6 59 Q196.6 65.5 190 65.5L190 65.5 Q183.4 65.5 183.4 59L183.4 52.4 L183.4 45.9 Q183.4 39.3 190 39.3Z"/>
<path d="M229.3 39.3 L229.3 39.3 Q235.9 39.3 235.9 45.9L235.9 52.4 L255.5 52.4 Q262.1 52.4 262.1 59L262.1 72.1 Q262.1 78.6 255.5 78.6L255.5 78.6 Q249 78.6 249 72.1L249 65.5 L235.9 65.5 L235.9 72.1 Q235.9 78.6 229.3 78.6L222.8 78.6 L222.8 91.7 L229.3 91.7 Q235.9 91.7 235.9 98.3L235.9 104.8 L262.1 104.8 L262.1 85.2 Q262.1 78.6 268.6 78.6L268.6 78.6 Q275.2 78.6 275.2 85.2L275.2 117.9 L288.3 117.9 L288.3 111.4 Q288.3 104.8 294.8 104.8L294.8 104.8 Q301.4 104.8 301.4 111.4L301.4 117.9 L321 117.9 Q327.6 117.9 327.6 124.5L327.6 150.7 Q327.6 157.2 321 157.2L281.7 157.2 Q275.2 157.2 275.2 150.7L275.2 131 L255.5 131 Q249 131 249 124.5L249 117.9 L209.7 117.9 L209.7 124.5 Q209.7 131 203.1 131L183.4 131 L183.4 137.6 Q183.4 144.1 176.9 144.1L170.3 144.1 L170.3 150.7 Q170.3 157.2 163.8 157.2L163.8 157.2 Q157.2 157.2 157.2 150.7L157.2 131 L150.7 131 Q144.1 131 144.1 124.5L144.1 111.4 Q144.1 104.8 150.7 104.8L150.7 104.8 Q157.2 104.8 157.2 111.4L157.2 117.9 L170.3 117.9 L170.3 111.4 Q170.3 104.8 176.9 104.8L176.9 104.8 Q183.4 104.8 183.4 111.4L183.4 117.9 L196.6 117.9 L196.6 98.3 Q196.6 91.7 203.1 91.7L209.7 91.7 L209.7 78.6 L203.1 78.6 Q196.6 78.6 196.6 72.1L196.6 72.1 Q196.6 65.5 203.1 65.5L209.7 65.5 L209.7 59 Q209.7 52.4 216.2 52.4L222.8 52.4 L222.8 45.9 Q222.8 39.3 229.3 39.3Z"/>
<path d="M268.6 39.3 L268.6 39.3 Q275.2 39.3 275.2 45.9L275.2 45.9 Q275.2 52.4 268.6 52.4L268.6 52.4 Q262.1 52.4 262.1 45.9L262.1 45.9 Q262.1 39.3 268.6 39.3Z"/>
<path d="M176.9 65.5 L176.9 65.5 Q183.4 65.5 183.4 72.1L183.4 72.1 Q183.4 78.6 176.9 78.6L176.9 78.6 Q170.3 78.6 170.3 72.1L170.3 72.1 Q170.3 65.5 176.9 65.5Z"/>
<path d="M163.8 78.6 L163.8 78.6 Q170.3 78.6 170.3 85.2L170.3 85.2 Q170.3 91.7 163.8 91.7L163.8 91.7 Q157.2 91.7 157.2 85.2L157.2 85.2 Q157.2 78.6 163.8 78.6Z"/>
<path d="M190 78.6 L190 78.6 Q196.6 78.6 196.6 85.2L196.6 85.2 Q196.6 91.7 190 91.7L190 91.7 Q183.4 91.7 183.4 85.2L183.4 85.2 Q183.4 78.6 190 78.6Z"/>
<path d="M242.4 78.6 L242.4 78.6 Q249 78.6 249 85.2L249 85.2 Q249 91.7 242.4 91.7L242.4 91.7 Q235.9 91.7 235.9 85.2L235.9 85.2 Q235.9 78.6 242.4 78.6Z"/>
<path d="M6.6 104.8 L6.6 104.8 Q13.1 104.8 13.1 111.4L13.1 117.9 L26.2 117.9 L26.2 111.4 Q26.2 104.8 32.8 104.8L45.9 104.8 Q52.4 104.8 52.4 111.4L52.4 137.6 Q52.4 144.1 45.9 144.1L19.7 144.1 Q13.1 144.1 13.1 137.6L13.1 131 L6.6 131 Q0 131 0 124.5L0 117.9 L0 111.4 Q0 104.8 6.6 104.8Z"/>
<path d="M72.1 104.8 L98.3 104.8 Q104.8 104.8 104.8 111.4L104.8 124.5 Q104.8 131 98.3 131L98.3 131 Q91.7 131 91.7 124.5L91.7 117.9 L78.6 117.9 L78.6 131 L85.2 131 Q91.7 131 91.7 137.6L91.7 137.6 Q91.7 144.1 85.2 144.1L72.1 144.1 Q65.5 144.1 65.5 137.6L65.5 117.9 L65.5 111.4 Q65.5 104.8 72.1 104.8Z"/>
<path d="M334.1 104.8 L334.1 104.8 Q340.7 104.8 340.7 111.4L340.7 111.4 Q340.7 117.9 334.1 117.9L334.1 117.9 Q327.6 117.9 327.6 111.4L327.6 111.4 Q327.6 104.8 334.1 104.8Z"/>
<path d="M360.3 104.8 L373.4 104.8 Q380 104.8 380 111.4L380 124.5 Q380 131 373.4 131L373.4 131 Q366.9 131 366.9 124.5L366.9 117.9 L360.3 117.9 Q353.8 117.9 353.8 111.4L353.8 111.4 Q353.8 104.8 360.3 104.8Z"/>
<path d="M124.5 131 L124.5 131 Q131 131 131 137.6L131 150.7 Q131 157.2 124.5 157.2L111.4 157.2 Q104.8 157.2 104.8 150.7L104.8 150.7 Q104.8 144.1 111.4 144.1L117.9 144.1 L117.9 137.6 Q117.9 131 124.5 131Z"/>
<path d="M229.3 131 L242.4 131 Q249 131 249 137.6L249 144.1 L255.5 144.1 Q262.1 144.1 262.1 150.7L262.1 190 Q262.1 196.6 255.5 196.6L216.2 196.6 Q209.7 196.6 209.7 190L209.7 190 Q209.7 183.4 216.2 183.4L249 183.4 L249 170.3 L209.7 170.3 L209.7 176.9 Q209.7 183.4 203.1 183.4L190 183.4 Q183.4 183.4 183.4 176.9L183.4 163.8 Q183.4 157.2 190 157.2L209.7 157.2 L209.7 150.7 Q209.7 144.1 216.2 144.1L216.2 144.1 Q222.8 144.1 222.8 150.7L222.8 157.2 L235.9 157.2 L235.9 144.1 L229.3 144.1 Q222.8 144.1 222.8 137.6L222.8 137.6 Q222.8 131 229.3 131Z"/>
<path d="M347.2 131 L360.3 131 Q366.9 131 366.9 137.6L366.9 137.6 Q366.9 144.1 360.3 144.1L347.2 144.1 Q340.7 144.1 340.7 137.6L340.7 137.6 Q340.7 131 347.2 131Z"/>
<path d="M6.6 144.1 L6.6 144.1 Q13.1 144.1 13.1 150.7L13.1 150.7 Q13.1 157.2 6.6 157.2L6.6 157.2 Q0 157.2 0 150.7L0 150.7 Q0 144.1 6.6 144.1Z"/>
<path d="M59 144.1 L59 144.1 Q65.5 144.1 65.5 150.7L65.5 150.7 Q65.5 157.2 59 157.2L59 157.2 Q52.4 157.2 52.4 150.7L52.4 150.7 Q52.4 144.1 59 144.1Z"/>
<path d="M373.4 144.1 L373.4 144.1 Q380 144.1 380 150.7L380 150.7 Q380 157.2 373.4 157.2L373.4 157.2 Q366.9 157.2 366.9 150.7L366.9 150.7 Q366.9 144.1 373.4 144.1Z"/>
<path d="M19.7 157.2 L32.8 157.2 Q39.3 157.2 39.3 163.8L39.3 170.3 L59 170.3 Q65.5 170.3 65.5 176.9L65.5 176.9 Q65.5 183.4 59 183.4L52.4 183.4 L52.4 190 Q52.4 196.6 45.9 196.6L45.9 196.6 Q39.3 196.6 39.3 190L39.3 183.4 L13.1 183.4 L13.1 190 Q13.1 196.6 6.6 196.6L6.6 196.6 Q0 196.6 0 190L0 176.9 Q0 170.3 6.6 170.3L13.1 170.3 L13.1 163.8 Q13.1 157.2 19.7 157.2Z"/>
<path d="M72.1 157.2 L85.2 157.2 Q91.7 157.2 91.7 163.8L91.7 163.8 Q91.7 170.3 85.2 170.3L72.1 170.3 Q65.5 170.3 65.5 163.8L65.5 163.8 Q65.5 157.2 72.1 157.2Z"/>
<path d="M137.6 157.2 L150.7 157.2 Q157.2 157.2 157.2 163.8L157.2 170.3 L163.8 170.3 Q170.3 170.3 170.3 176.9L170.3 183.4 L176.9 183.4 Q183.4 183.4 183.4 190L183.4 190 Q183.4 196.6 176.9 196.6L163.8 196.6 Q157.2 196.6 157.2 190L157.2 183.4 L150.7 183.4 Q144.1 183.4 144.1 176.9L144.1 170.3 L137.6 170.3 Q131 170.3 131 163.8L131 163.8 Q131 157.2 137.6 157.2Z"/>
<path d="M334.1 157.2 L347.2 157.2 Q353.8 157.2 353.8 163.8L353.8 170.3 L373.4 170.3 Q380 170.3 380 176.9L380 190 Q380 196.6 373.4 196.6L366.9 196.6 L366.9 229.3 Q366.9 235.9 360.3 235.9L353.8 235.9 L353.8 275.2 L373.4 275.2 Q380 275.2 380 281.7L380 281.7 Q380 288.3 373.4 288.3L366.9 288.3 L366.9 294.8 Q366.9 301.4 360.3 301.4L360.3 301.4 Q353.8 301.4 353.8 294.8L353.8 288.3 L340.7 288.3 L340.7 307.9 Q340.7 314.5 334.1 314.5L327.6 314.5 L327.6 327.6 L334.1 327.6 Q340.7 327.6 340.7 334.1L340.7 334.1 Q340.7 340.7 334.1 340.7L314.5 340.7 L314.5 347.2 Q314.5 353.8 307.9 353.8L307.9 353.8 Q301.4 353.8 301.4 347.2L301.4 327.6 L288.3 327.6 L288.3 334.1 Q288.3 340.7 281.7 340.7L249 340.7 L249 360.3 Q249 366.9 242.4 366.9L242.4 366.9 Q235.9 366.9 235.9 360.3L235.9 340.7 L229.3 340.7 Q222.8 340.7 222.8 334.1L222.8 327.6 L209.7 327.6 L209.7 334.1 Q209.7 340.7 203.1 340.7L203.1 340.7 Q196.6 340.7 196.6 334.1L196.6 321 Q196.6 314.5 203.1 314.5L209.7 314.5 L209.7 294.8 Q209.7 288.3 216.2 288.3L222.8 288.3 L222.8 255.5 Q222.8 249 229.3 249L275.2 249 L275.2 235.9 L268.6 235.9 Q262.1 235.9 262.1 229.3L262.1 229.3 Q262.1 222.8 268.6 222.8L275.2 222.8 L275.2 216.2 Q275.2 209.7 281.7 209.7L281.7 209.7 Q288.3 209.7 288.3 216.2L288.3 249 L301.4 249 L301.4 229.3 Q301.4 222.8 307.9 222.8L307.9 222.8 Q314.5 222.8 314.5 229.3L314.5 235.9 L321 235.9 Q327.6 235.9 327.6 242.4L327.6 242.4 Q327.6 249 321 249L314.5 249 L314.5 262.1 L340.7 262.1 L340.7 235.9 L334.1 235.9 Q327.6 235.9 327.6 229.3L327.6 222.8 L321 222.8 Q314.5 222.8 314.5 216.2L314.5 216.2 Q314.5 209.7 321 209.7L334.1 209.7 Q340.7 209.7 340.7 216.2L340.7 222.8 L353.8 222.8 L353.8 196.6 L347.2 196.6 Q340.7 196.6 340.7 190L340.7 170.3 L334.1 170.3 Q327.6 170.3 327.6 163.8L327.6 163.8 Q327.6 157.2 334.1 157.2ZM235.9 268.6 L235.9 294.8 Q235.9 301.4 229.3 301.4L222.8 301.4 L222.8 314.5 L242.4 314.5 Q249 314.5 249 321L249 327.6 L262.1 327.6 L262.1 301.4 L255.5 301.4 Q249 301.4 249 294.8L249 262.1 L235.9 262.1 ZM275.2 281.7 L275.2 314.5 L314.5 314.5 L314.5 275.2 L288.3 275.2 L275.2 275.2 Z"/>
<path d="M124.5 170.3 L124.5 170.3 Q131 170.3 131 176.9L131 196.6 L150.7 196.6 Q157.2 196.6 157.2 203.1L157.2 222.8 L163.8 222.8 Q170.3 222.8 170.3 229.3L170.3 229.3 Q170.3 235.9 163.8 235.9L157.2 235.9 L157.2 249 L170.3 249 L170.3 242.4 Q170.3 235.9 176.9 235.9L183.4 235.9 L183.4 203.1 Q183.4 196.6 190 196.6L190 196.6 Q196.6 196.6 196.6 203.1L196.6 222.8 L209.7 222.8 L209.7 216.2 Q209.7 209.7 216.2 209.7L216.2 209.7 Q222.8 209.7 222.8 216.2L222.8 229.3 Q222.8 235.9 216.2 235.9L209.7 235.9 L209.7 255.5 Q209.7 262.1 203.1 262.1L196.6 262.1 L196.6 268.6 Q196.6 275.2 190 275.2L176.9 275.2 Q170.3 275.2 170.3 268.6L170.3 262.1 L157.2 262.1 L157.2 268.6 Q157.2 275.2 150.7 275.2L131 275.2 L131 281.7 Q131 288.3 124.5 288.3L117.9 288.3 L117.9 307.9 Q117.9 314.5 111.4 314.5L111.4 314.5 Q104.8 314.5 104.8 307.9L104.8 281.7 Q104.8 275.2 111.4 275.2L117.9 275.2 L117.9 255.5 Q117.9 249 124.5 249L131 249 L131 235.9 L124.5 235.9 Q117.9 235.9 117.9 229.3L117.9 209.7 L111.4 209.7 Q104.8 209.7 104.8 203.1L104.8 203.1 Q104.8 196.6 111.4 196.6L117.9 196.6 L117.9 183.4 L117.9 176.9 Q117.9 170.3 124.5 170.3Z"/>
<path d="M281.7 170.3 L307.9 170.3 Q314.5 170.3 314.5 176.9L314.5 190 Q314.5 196.6 307.9 196.6L307.9 196.6 Q301.4 196.6 301.4 190L301.4 183.4 L281.7 183.4 Q275.2 183.4 275.2 176.9L275.2 176.9 Q275.2 170.3 281.7 170.3Z"/>
<path d="M85.2 183.4 L85.2 183.4 Q91.7 183.4 91.7 190L91.7 190 Q91.7 196.6 85.2 196.6L85.2 196.6 Q78.6 196.6 78.6 190L78.6 190 Q78.6 183.4 85.2 183.4Z"/>
<path d="M19.7 196.6 L32.8 196.6 Q39.3 196.6 39.3 203.1L39.3 203.1 Q39.3 209.7 32.8 209.7L26.2 209.7 L26.2 222.8 L32.8 222.8 Q39.3 222.8 39.3 229.3L39.3 235.9 L45.9 235.9 Q52.4 235.9 52.4 242.4L52.4 249 L72.1 249 Q78.6 249 78.6 255.5L78.6 262.1 L85.2 262.1 Q91.7 262.1 91.7 268.6L91.7 268.6 Q91.7 275.2 85.2 275.2L19.7 275.2 Q13.1 275.2 13.1 268.6L13.1 268.6 Q13.1 262.1 19.7 262.1L39.3 262.1 L39.3 249 L32.8 249 Q26.2 249 26.2 242.4L26.2 235.9 L19.7 235.9 Q13.1 235.9 13.1 229.3L13.1 209.7 L13.1 203.1 Q13.1 196.6 19.7 196.6Z"/>
<path d="M59 196.6 L59 196.6 Q65.5 196.6 65.5 203.1L65.5 203.1 Q65.5 209.7 59 209.7L59 209.7 Q52.4 209.7 52.4 203.1L52.4 203.1 Q52.4 196.6 59 196.6Z"/>
<path d="M268.6 196.6 L268.6 196.6 Q275.2 196.6 275.2 203.1L275.2 203.1 Q275.2 209.7 268.6 209.7L268.6 209.7 Q262.1 209.7 262.1 203.1L262.1 203.1 Q262.1 196.6 268.6 196.6Z"/>
<path d="M72.1 209.7 L85.2 209.7 Q91.7 209.7 91.7 216.2L91.7 216.2 Q91.7 222.8 85.2 222.8L78.6 222.8 L78.6 229.3 Q78.6 235.9 72.1 235.9L72.1 235.9 Q65.5 235.9 65.5 229.3L65.5 222.8 L65.5 216.2 Q65.5 209.7 72.1 209.7Z"/>
<path d="M242.4 222.8 L242.4 222.8 Q249 222.8 249 229.3L249 229.3 Q249 235.9 242.4 235.9L242.4 235.9 Q235.9 235.9 235.9 229.3L235.9 229.3 Q235.9 222.8 242.4 222.8Z"/>
<path d="M6.6 235.9 L6.6 235.9 Q13.1 235.9 13.1 242.4L13.1 242.4 Q13.1 249 6.6 249L6.6 249 Q0 249 0 242.4L0 242.4 Q0 235.9 6.6 235.9Z"/>
<path d="M85.2 235.9 L98.3 235.9 Q104.8 235.9 104.8 242.4L104.8 242.4 Q104.8 249 98.3 249L85.2 249 Q78.6 249 78.6 242.4L78.6 242.4 Q78.6 235.9 85.2 235.9Z"/>
<path d="M163.8 275.2 L163.8 275.2 Q170.3 275.2 170.3 281.7L170.3 294.8 Q170.3 301.4 163.8 301.4L150.7 301.4 Q144.1 301.4 144.1 294.8L144.1 294.8 Q144.1 288.3 150.7 288.3L157.2 288.3 L157.2 281.7 Q157.2 275.2 163.8 275.2Z"/>
<path d="M190 288.3 L190 288.3 Q196.6 288.3 196.6 294.8L196.6 307.9 Q196.6 314.5 190 314.5L176.9 314.5 Q170.3 314.5 170.3 307.9L170.3 307.9 Q170.3 301.4 176.9 301.4L183.4 301.4 L183.4 294.8 Q183.4 288.3 190 288.3Z"/>
<path d="M294.8 288.3 L294.8 288.3 Q301.4 288.3 301.4 294.8L301.4 294.8 Q301.4 301.4 294.8 301.4L294.8 301.4 Q288.3 301.4 288.3 294.8L288.3 294.8 Q288.3 288.3 294.8 288.3Z"/>
<path d="M137.6 301.4 L137.6 301.4 Q144.1 301.4 144.1 307.9L144.1 307.9 Q144.1 314.5 137.6 314.5L137.6 314.5 Q131 314.5 131 307.9L131 307.9 Q131 301.4 137.6 301.4Z"/>
<path d="M150.7 314.5 L150.7 314.5 Q157.2 314.5 157.2 321L157.2 321 Q157.2 327.6 150.7 327.6L150.7 327.6 Q144.1 327.6 144.1 321L144.1 321 Q144.1 314.5 150.7 314.5Z"/>
<path d="M347.2 314.5 L360.3 314.5 Q366.9 314.5 366.9 321L366.9 321 Q366.9 327.6 360.3 327.6L347.2 327.6 Q340.7 327.6 340.7 321L340.7 321 Q340.7 314.5 347.2 314.5Z"/>
<path d="M111.4 327.6 L137.6 327.6 Q144.1 327.6 144.1 334.1L144.1 334.1 Q144.1 340.7 137.6 340.7L117.9 340.7 L117.9 347.2 Q117.9 353.8 111.4 353.8L111.4 353.8 Q104.8 353.8 104.8 347.2L104.8 340.7 L104.8 334.1 Q104.8 327.6 111.4 327.6Z"/>
<path d="M176.9 327.6 L176.9 327.6 Q183.4 327.6 183.4 334.1L183.4 334.1 Q183.4 340.7 176.9 340.7L176.9 340.7 Q170.3 340.7 170.3 334.1L170.3 334.1 Q170.3 327.6 176.9 327.6Z"/>
<path d="M373.4 327.6 L373.4 327.6 Q380 327.6 380 334.1L380 347.2 Q380 353.8 373.4 353.8L373.4 353.8 Q366.9 353.8 366.9 347.2L366.9 340.7 L366.9 334.1 Q366.9 327.6 373.4 327.6Z"/>
<path d="M150.7 340.7 L163.8 340.7 Q170.3 340.7 170.3 347.2L170.3 366.9 L183.4 366.9 L183.4 347.2 Q183.4 340.7 190 340.7L190 340.7 Q196.6 340.7 196.6 347.2L196.6 353.8 L203.1 353.8 Q209.7 353.8 209.7 360.3L209.7 366.9 L216.2 366.9 Q222.8 366.9 222.8 373.4L222.8 373.4 Q222.8 380 216.2 380L150.7 380 Q144.1 380 144.1 373.4L144.1 373.4 Q144.1 366.9 150.7 366.9L157.2 366.9 L157.2 353.8 L150.7 353.8 Q144.1 353.8 144.1 347.2L144.1 347.2 Q144.1 340.7 150.7 340.7Z"/>
<path d="M347.2 340.7 L347.2 340.7 Q353.8 340.7 353.8 347.2L353.8 347.2 Q353.8 353.8 347.2 353.8L347.2 353.8 Q340.7 353.8 340.7 347.2L340.7 347.2 Q340.7 340.7 347.2 340.7Z"/>
<path d="M268.6 353.8 L281.7 353.8 Q288.3 353.8 288.3 360.3L288.3 360.3 Q288.3 366.9 281.7 366.9L275.2 366.9 L275.2 373.4 Q275.2 380 268.6 380L255.5 380 Q249 380 249 373.4L249 373.4 Q249 366.9 255.5 366.9L262.1 366.9 L262.1 360.3 Q262.1 353.8 268.6 353.8Z"/>
<path d="M321 353.8 L334.1 353.8 Q340.7 353.8 340.7 360.3L340.7 373.4 Q340.7 380 334.1 380L334.1 380 Q327.6 380 327.6 373.4L327.6 366.9 L321 366.9 Q314.5 366.9 314.5 360.3L314.5 360.3 Q314.5 353.8 321 353.8Z"/>
<path d="M360.3 353.8 L360.3 353.8 Q366.9 353.8 366.9 360.3L366.9 373.4 Q366.9 380 360.3 380L360.3 380 Q353.8 380 353.8 373.4L353.8 366.9 L353.8 360.3 Q353.8 353.8 360.3 353.8Z"/>
<path d="M111.4 366.9 L111.4 366.9 Q117.9 366.9 117.9 373.4L117.9 373.4 Q117.9 380 111.4 380L111.4 380 Q104.8 380 104.8 373.4L104.8 373.4 Q104.8 366.9 111.4 366.9Z"/>
<path d="M294.8 366.9 L307.9 366.9 Q314.5 366.9 314.5 373.4L314.5 373.4 Q314.5 380 307.9 380L294.8 380 Q288.3 380 288.3 373.4L288.3 373.4 Q288.3 366.9 294.8 366.9Z"/>
<path d="M 45.9 0 A 45.9 45.9 0 1 0 45.9 91.8 A 45.9 45.9 0 1 0 45.9 0 Z M 45.9 13.100000000000001 A 32.8 32.8 0 1 1 45.9 78.7 A 32.8 32.8 0 1 1 45.9 13.1 Z" />
<path d="M 45.9 26.2 A 19.7 19.7 0 1 0 45.9 65.6 A 19.7 19.7 0 1 0 45.9 26.2 Z" />
<path d="M 334.1 0 A 45.9 45.9 0 1 0 334.1 91.8 A 45.9 45.9 0 1 0 334.1 0 Z M 334.1 13.100000000000001 A 32.8 32.8 0 1 1 334.1 78.7 A 32.8 32.8 0 1 1 334.1 13.1 Z" />
<path d="M 334.1 26.2 A 19.7 19.7 0 1 0 334.1 65.6 A 19.7 19.7 0 1 0 334.1 26.2 Z" />
<path d="M 45.9 288.20000000000005 A 45.9 45.9 0 1 0 45.9 380 A 45.9 45.9 0 1 0 45.9 288.2 Z M 45.9 301.3 A 32.8 32.8 0 1 1 45.9 366.9 A 32.8 32.8 0 1 1 45.9 301.3 Z" />
<path d="M 45.9 314.40000000000003 A 19.7 19.7 0 1 0 45.9 353.8 A 19.7 19.7 0 1 0 45.9 314.4 Z" />

</svg>